<?xml version="1.0" encoding="UTF-8"?>
<svg id="Calque_2" data-name="Calque 2" xmlns="http://www.w3.org/2000/svg" viewBox="0 0 42.14 43.9">
  <defs>
    <style>
      .cls-1 {
        fill: #fff;
      }
    </style>
  </defs>
  <g id="Calque_1-2" data-name="Calque 1">
    <g id="IqpQg4.tif">
      <g>
        <path class="cls-1" d="M41.41,18.74c2.05-2.71-.68-6.09-2.74-8.02,2.05-1.71.73-3.96-1.56-4.64l-4.25-1.22c-.34-2.73-1.34-3.8-2.99-3.21l-2.86,1.26c.71-3.33-3.22-3.94-4.08-1.07l-3.32-1.28c-2.48-.5-2.35,2.03-1.31,3.57-.76-.46-1.35-1.14-1.81-1.89-.85-2.11-2.25-1.48-4.22,1.87-1.2-.94-4.82-3.57-6.31-2.86-.25.12-.46.25-.58.51-.26,2.01-.22,4.05.11,6.13l-2.2,1.45c-1.91,1.27-4.8,3.89-1.17,5.01-1.3,1.8-2.01,3.85-2.11,6.16v.72c.16.78.77,1.23,1.83,1.33l-.24,3.61c-.21,2.96.75,6.38,4.03,7.01.69,2.44,1.68,4.24,3.59,5.95l5.26,4.4,1.05.38h9.78c6.41-1.14,11.33-4.01,13.11-10.68,2.74.04,3.32-1.82,3.36-4.2.23-2.47.5-6.34-1.27-8.12.83-.29,1.13-1.01.91-2.15ZM4.54,17.28l2.84-4.26c-.39-.84-1.09-.54-1.77-.63-.27-.04-.48.1-.35-.35.43-1.49,3.25-1.89,3.6-2.43.53-.8.1-2.51-.02-3.42,1.68.27,2.88,3.01,4.67,1.92.35-.21,1.49-2.36,1.77-2.16.22,1.12,2.93,2.34,3.94,2.34,1.55,0,3.31-1.68,2.51-3.3.35.28,2.36.86,2.58.67.1-.09.02-.39.05-.42.52-.4.59.89.86,1.4,1.56,2.98,3.66-1.59,4.5-1.41.58.46.27,1.23.47,1.92.56,1.97,1.92.56,3.23,1.54-.22.31-.81.4-.93.75-.41,1.22,2.8,2.74,3.57,3.53.44.45,2.1,3.02,1.66,3.47-.07.07-1.72-.49-1.85.35-.03.22,1.4,3.33,1.52,4.18.08.6-.51,1.3-.98.71-.19-.24-1.26-3.37-1.49-4-.25-.7.2-1.16-.71-1.69-1.05-.61-.78.91-1.38.68-.78-.3-1.14-2.01-2.15-1.92-.77.07-.53,1.03-.86,1.54-.84,1.32-1.45-1.54-2.24-1.54-.45,0-2.38,1.96-2.74,1.68-.69-1,.28-3.5-1.3-3.35-.62.06-1.46,1.58-2.2,2.12-.77.57-3.1,1.7-4.02,1.72-.63,0-.29-1.09-.71-1.44-.17-.59,0-1.7-.75-1.88-.71-.17-.59.41-.88.61-.17.12-.44.11-.6.24-1.57,1.21-2.74,3.09-3.98,4.62l-2.14-1.67c-.85.75.03,1.81.12,2.74.14,1.46-.2,2.97,0,4.42-.9.23-.68-.55-1.36-.9-1.22-.63-1.71.41-1.48-1.57.1-.87,1.6-4.84.56-5.16-.76-.23-1.01,1.16-1.54.36ZM24.83,21.83c-.91.44-1.72,2.25-1.98,2.44-.11.08-1.52.34-1.69.31-.3-.06-.76-1.34-.97-1.6-1.76-2.18-5.84-2.25-8.1-.76-1.13.75-1.63,1.92-2.54,2.82.02-.99.18-2,.23-2.98.02-.31-.5-1.47.23-1.19.37.14.48.66,1.1.14.14-.12,1.45-2.5,1.91-3.1.35-.45.91-1.25,1.28-1.59,2.38-2.21.72,2.82,1.57,2.99,2.44-1.18,5.15-1.86,7.16-3.82.37.66.88,2.31,1.37,2.8,1.22,1.2,2.07-1.59,3.16-1.61.45.68,1.86,2.66,2.76,2.05.39-.27.28-1.47.82-1.8.17,0,1,1.17,1.32,1.32.52.23,1.05-.14,1.2-.03.35.26,1.75,4.3,1.67,4.76-.02.13-1.85.9-2.05,1.34-1.15-2.23-6.37-3.51-8.46-2.49ZM31.13,30.16c-1.89,1.8-6.91.4-7.45-2.19-.29-1.39.36-3.26,1.4-4.22,1.15-1.06,1.6-.45,2.75-.41,1.19.05,1.56-.23,2.89.45,2.67,1.37,2.36,4.5.42,6.36ZM19.78,28.95c-.1.18-1.35,1.71-1.52,1.83-1.51,1.1-5.98.11-7.01-1.35-2.15-3.04,1.12-6.73,4.45-6.94,3.38-.21,5.63,3.47,4.07,6.47ZM37.59,29.58c-.49.77-1.39-.59-2.03-.48-.18,3.65-3.59,8.37-6.72,10.11-1.28.71-3.11,1.02-4.12,1.61-.62.37-1.2,1.89-1.94,1.89-.48,0-1.05-.98-1.62-1.25-1.16-.56-3.2-.64-4.7-1.27-3.57-1.49-6.22-4.67-7.07-8.47-.21-.96.61-1.78-1.41-1.7-.94.04-1.17.79-2.11,0-1.06-.89-1.69-4.31-.48-5.2,1.05-.77,1.17.73,1.91,1.15.59.33,1.68.16,1.9.49.17.25.12,1.72.39,2.47,1.09,3.03,4.75,4.09,7.71,3.75,3.24-.37,4.07-3.39,4.42-6.09.05-.43-.09-.39.47-.35-.5,4.57,4.23,6.8,8.22,6.19,2.65-.41,3.73-4.28,3.69-6.56l3.61-2.26c.34.25.27,5.37-.11,5.97Z"/>
        <path class="cls-1" d="M23.86,37.33c-1.49.57-2.97.71-4.48.19-.56-.19-2.38-1.58-2.43-.2-.04,1.15,2.74,2.16,3.73,2.26,1.27.13,6.15-.85,6.29-2.26.02-.2-.17-.97-.27-1.04-.78-.5-2.16.78-2.83,1.04Z"/>
        <path class="cls-1" d="M22.07,35.34c.51-.01.9.31,1.62.16.44-.09,1.62-1.01,1.57-1.47-.03-.31-.72-1.37-1.03-1.37-1.84-.02-.6,1.21-.84,1.45-1.2-.49-1.41-.32-2.62,0-.31-3.15-2.58-1.03-1.4,1.04.75,1.33,1.8.2,2.71.18Z"/>
      </g>
    </g>
  </g>
</svg>