<?xml version="1.0" encoding="UTF-8"?>
<svg id="Calque_2" data-name="Calque 2" xmlns="http://www.w3.org/2000/svg" xmlns:xlink="http://www.w3.org/1999/xlink" viewBox="0 0 583.14 773.19">
  <defs>
    <style>
      .cls-1 {
        fill: #afafaf;
      }
    </style>
    <symbol id="Nouveau_symbole" data-name="Nouveau symbole" viewBox="0 0 583.14 773.19">
      <path class="cls-1" d="M489.72,758.61c-32.75,9.72-67.48,14.58-104.2,14.58-53.28,0-103.31-10.08-150.11-30.23s-87.47-47.88-122.02-83.16c-35.28-34.55-63-75.22-83.16-122.02S0,440.95,0,387.67s10.08-103.48,30.23-150.64,47.88-88.38,83.16-123.66c34.55-34.55,75.22-62.08,122.02-82.59S332.23,0,385.52,0c36.72,0,71.45,4.69,104.2,14.05s63.89,22.67,93.42,39.94l-49.69,72.36c-22.31-12.95-45.72-23.03-70.19-30.23-24.48-7.2-50.41-10.81-77.75-10.81-41.03,0-79.38,7.92-115,23.77-35.64,15.84-66.78,37.44-93.42,64.8-27.36,28.08-48.78,60.47-64.25,97.19-15.48,36.72-23.22,75.59-23.22,116.62s7.73,79.91,23.22,116.62c15.47,36.72,36.89,68.41,64.25,95.03,26.64,27.36,57.78,48.95,93.42,64.8,35.62,15.84,73.97,23.75,115,23.75,18.72,0,37.08-1.61,55.08-4.86,18-3.23,35.27-8.09,51.83-14.58v-142.55h-111.22v-85.31h200.86v278.62c-28.81,16.56-59.59,29.69-92.34,39.41Z"/>
    </symbol>
  </defs>
  <g id="Kit_d_icônes_d_application_B" data-name="Kit d’icônes d’application B">
    <g id="Icône_d_application_circulaire_et_pastille" data-name="Icône d’application circulaire et pastille">
      <g id="Principal">
        <g id="_1024x1024" data-name="1024x1024">
          <use id="_VOTRE_ICÔNE_ICI_" data-name="[VOTRE ICÔNE ICI]" width="583.14" height="773.19" xlink:href="#Nouveau_symbole"/>
        </g>
      </g>
    </g>
  </g>
</svg>